<svg id="Component_30_1" data-name="Component 30 – 1" xmlns="http://www.w3.org/2000/svg" width="177.249" height="54.26" viewBox="0 0 177.249 54.26">
  <g id="Group_27" data-name="Group 27">
    <g id="Group_1" data-name="Group 1" transform="translate(170.069 34.731)">
      <rect id="Rectangle_2" data-name="Rectangle 2" width="0.013" height="0.013" fill="#fff"/>
    </g>
    <g id="Group_24" data-name="Group 24" transform="translate(0 0)">
      <g id="Group_23" data-name="Group 23" transform="translate(11.544 10.19)">
        <g id="Group_18" data-name="Group 18" transform="translate(64.984)">
          <g id="Group_3" data-name="Group 3">
            <g id="Group_2" data-name="Group 2">
              <path id="Path_1" data-name="Path 1" d="M279.436,274.172v18.35h-3.458v3.458h-3.458v3.459h-7.975v-3.459h-3.458V274.172H265.6v20.756h5.869V291.47h3.458v-17.3Z" transform="translate(-261.086 -274.172)" fill="#fff"/>
            </g>
          </g>
          <g id="Group_6" data-name="Group 6" transform="translate(24.075)">
            <g id="Group_4" data-name="Group 4" transform="translate(4.511)">
              <rect id="Rectangle_3" data-name="Rectangle 3" width="10.375" height="4.511" fill="#fff"/>
            </g>
            <g id="Group_5" data-name="Group 5" transform="translate(0 4.511)">
              <path id="Path_2" data-name="Path 2" d="M334.731,287.127V293h6.917v4.511h-6.917v5.864h10.375v4.511H334.715v-4.522h-4.5V287.127Z" transform="translate(-330.219 -287.127)" fill="#fff"/>
            </g>
          </g>
          <g id="Group_8" data-name="Group 8" transform="translate(48.429 3.985)">
            <g id="Group_7" data-name="Group 7">
              <path id="Path_3" data-name="Path 3" d="M400.155,285.615v.527h.527v-.527Z" transform="translate(-400.155 -285.615)" fill="#fff"/>
            </g>
          </g>
          <g id="Group_11" data-name="Group 11" transform="translate(44.971)">
            <g id="Group_9" data-name="Group 9">
              <path id="Path_4" data-name="Path 4" d="M405.116,285.605V277.63h-3.458v-3.458H390.224v25.267h4.511V289.064H400.6v10.375h4.511V288.011h-3.458v-2.406Zm-3.985-6.922H400.6v5.869h-5.869v-5.869H400.6v-.527h.527Z" transform="translate(-390.224 -274.172)" fill="#fff"/>
            </g>
            <g id="Group_10" data-name="Group 10" transform="translate(10.381 3.985)">
              <path id="Path_5" data-name="Path 5" d="M420.033,285.615v.527h.527v-.527Z" transform="translate(-420.033 -285.615)" fill="#fff"/>
            </g>
          </g>
          <g id="Group_13" data-name="Group 13" transform="translate(64.484)">
            <g id="Group_12" data-name="Group 12">
              <path id="Path_6" data-name="Path 6" d="M450.769,278.683v5.869h6.917v3.459h3.458v7.97h-3.458v3.459H446.257v-4.511h10.375v-5.864h-6.917v-3.458h-3.458V277.63h3.458v-3.458h11.428v4.511Z" transform="translate(-446.257 -274.172)" fill="#fff"/>
            </g>
          </g>
          <g id="Group_17" data-name="Group 17" transform="translate(85.828)">
            <g id="Group_14" data-name="Group 14" transform="translate(0 4.511)">
              <path id="Path_7" data-name="Path 7" d="M512.067,293h6.917v4.511h-6.917v5.854H507.55V287.127h4.517Z" transform="translate(-507.55 -287.127)" fill="#fff"/>
            </g>
            <g id="Group_15" data-name="Group 15" transform="translate(4.522)">
              <rect id="Rectangle_4" data-name="Rectangle 4" width="10.37" height="4.511" fill="#fff"/>
            </g>
            <g id="Group_16" data-name="Group 16" transform="translate(4.527 20.756)">
              <rect id="Rectangle_5" data-name="Rectangle 5" width="10.365" height="4.511" fill="#fff"/>
            </g>
          </g>
        </g>
        <g id="Group_22" data-name="Group 22">
          <g id="Group_19" data-name="Group 19">
            <path id="Path_8" data-name="Path 8" d="M89.984,296.529v2.484H74.476V274.172H89.843v2.484H77.1v8.623H88.955v2.413H77.1v8.836Z" transform="translate(-74.476 -274.172)" fill="#fff"/>
          </g>
          <g id="Group_20" data-name="Group 20" transform="translate(19.735)">
            <path id="Path_9" data-name="Path 9" d="M150.877,286.593c0,7.488-4.294,12.421-10.859,12.421h-8.872V274.172h8.872C146.583,274.172,150.877,279.105,150.877,286.593Zm-3.442,0c0-5.536-3.016-9.191-7.594-9.191h-5.288v18.382h5.288C144.418,295.784,147.435,292.129,147.435,286.593Z" transform="translate(-131.146 -274.172)" fill="#fff"/>
          </g>
          <g id="Group_21" data-name="Group 21" transform="translate(42.465)">
            <path id="Path_10" data-name="Path 10" d="M196.419,290.567v-16.4h3.407V290.39a5.946,5.946,0,0,0,11.888,0V274.172h3.406v16.4c0,5.359-3.69,8.872-9.333,8.872C200.11,299.439,196.419,295.926,196.419,290.567Z" transform="translate(-196.419 -274.172)" fill="#fff"/>
          </g>
        </g>
      </g>
      <path id="Path_11" data-name="Path 11" d="M125.264,247.289l.648-1.715-1.753-.662-.648,1.715-1.715-.648-.662,1.753,1.715.648-.648,1.715,1.753.662.648-1.715,1.715.648.662-1.753Z" transform="translate(-93.342 -244.911)" fill="#fff"/>
      <path id="Path_12" data-name="Path 12" d="M366.548,250.6a2.565,2.565,0,1,0,2.565,2.565A2.565,2.565,0,0,0,366.548,250.6Zm0,3.917a1.352,1.352,0,1,1,1.352-1.352A1.352,1.352,0,0,1,366.548,254.521Z" transform="translate(-251.622 -248.621)" fill="#fff"/>
      <rect id="Rectangle_6" data-name="Rectangle 6" width="4.939" height="4.939" transform="translate(158.37 4.991)" fill="#fff"/>
      <path id="Path_13" data-name="Path 13" d="M47.917,309.119H41.326v-6.591h6.591Zm-5.151-1.441h3.71v-3.71h-3.71Z" transform="translate(-41.326 -282.464)" fill="#fff"/>
      <path id="Path_14" data-name="Path 14" d="M215.378,261.261l-3.988-3.3,4.758-2.034Z" transform="translate(-152.167 -252.093)" fill="#fff"/>
    </g>
    <g id="Group_26" data-name="Group 26" transform="translate(28.77 45.736)">
      <path id="Path_15" data-name="Path 15" d="M188.3,363.859l1.69-1.7-1.741-1.727-1.69,1.7-1.7-1.69-1.727,1.741,1.7,1.69-1.69,1.7,1.741,1.726,1.69-1.7,1.7,1.69,1.727-1.74Z" transform="translate(-183.129 -359.645)" fill="#fff"/>
      <g id="Group_25" data-name="Group 25" transform="translate(11.646)">
        <path id="Path_16" data-name="Path 16" d="M206.129,362.712a1.9,1.9,0,0,1,.8.172,2.1,2.1,0,0,1,.651.461,2.232,2.232,0,0,1,0,3.058,2.094,2.094,0,0,1-.651.462,1.967,1.967,0,0,1-1.769-.081,2.068,2.068,0,0,1-.724-.688v3.086h-.362v-6.2h.362v.669a2.071,2.071,0,0,1,.724-.688A1.92,1.92,0,0,1,206.129,362.712Zm0,3.963a1.565,1.565,0,0,0,.66-.141,1.7,1.7,0,0,0,.539-.384,1.791,1.791,0,0,0,.361-.574,1.933,1.933,0,0,0,0-1.4,1.8,1.8,0,0,0-.361-.574,1.7,1.7,0,0,0-.539-.384,1.627,1.627,0,0,0-1.321,0,1.7,1.7,0,0,0-.538.384,1.79,1.79,0,0,0-.363.574,1.948,1.948,0,0,0,0,1.4,1.783,1.783,0,0,0,.363.574,1.7,1.7,0,0,0,.538.384A1.572,1.572,0,0,0,206.129,366.675Z" transform="translate(-204.075 -360.658)" fill="#fff"/>
        <path id="Path_17" data-name="Path 17" d="M217.422,362.712a1.9,1.9,0,0,1,.8.172,2.1,2.1,0,0,1,.652.461,2.234,2.234,0,0,1,0,3.058,2.091,2.091,0,0,1-.652.462,1.954,1.954,0,0,1-1.6,0,2.088,2.088,0,0,1-.651-.462,2.241,2.241,0,0,1,0-3.058,2.094,2.094,0,0,1,.651-.461A1.906,1.906,0,0,1,217.422,362.712Zm0,3.963a1.566,1.566,0,0,0,.661-.141,1.706,1.706,0,0,0,.538-.384,1.792,1.792,0,0,0,.362-.574,1.94,1.94,0,0,0,0-1.4,1.8,1.8,0,0,0-.362-.574,1.706,1.706,0,0,0-.538-.384,1.627,1.627,0,0,0-1.321,0,1.705,1.705,0,0,0-.538.384,1.789,1.789,0,0,0-.362.574,1.941,1.941,0,0,0,0,1.4,1.781,1.781,0,0,0,.362.574,1.705,1.705,0,0,0,.538.384A1.566,1.566,0,0,0,217.422,366.675Z" transform="translate(-209.089 -360.658)" fill="#fff"/>
        <path id="Path_18" data-name="Path 18" d="M232.118,363.2h.389l-1.448,4.008h-.389l-1.248-3.474-1.258,3.474h-.38l-1.448-4.008h.38l1.258,3.474,1.258-3.474h.38l1.258,3.474Z" transform="translate(-213.959 -360.875)" fill="#fff"/>
        <path id="Path_19" data-name="Path 19" d="M243.068,362.712a1.74,1.74,0,0,1,.764.172,2.044,2.044,0,0,1,.624.461,2.135,2.135,0,0,1,.421.688,2.311,2.311,0,0,1,.154.842h-3.656a1.876,1.876,0,0,0,.132.7,1.79,1.79,0,0,0,.361.574,1.708,1.708,0,0,0,.539.384,1.564,1.564,0,0,0,.66.141,1.591,1.591,0,0,0,.674-.149,1.71,1.71,0,0,0,.557-.411l.262.244a2.146,2.146,0,0,1-.674.5,1.95,1.95,0,0,1-1.62.009,2.082,2.082,0,0,1-.651-.462,2.242,2.242,0,0,1,0-3.058,2.087,2.087,0,0,1,.651-.461A1.9,1.9,0,0,1,243.068,362.712Zm0,.363a1.574,1.574,0,0,0-.584.108,1.626,1.626,0,0,0-.493.3,1.9,1.9,0,0,0-.371.457,1.693,1.693,0,0,0-.208.57h3.23a1.839,1.839,0,0,0-.552-1.027,1.548,1.548,0,0,0-.47-.3A1.422,1.422,0,0,0,243.068,363.075Z" transform="translate(-220.477 -360.658)" fill="#fff"/>
        <path id="Path_20" data-name="Path 20" d="M253.629,362.866a1.72,1.72,0,0,1,1.61.1l-.19.307a1.271,1.271,0,0,0-.7-.2,1.332,1.332,0,0,0-.494.09,1.234,1.234,0,0,0-.674.629,1.068,1.068,0,0,0-.1.457v2.742h-.362v-4.008h.362v.3A1.641,1.641,0,0,1,253.629,362.866Z" transform="translate(-225.671 -360.658)" fill="#fff"/>
        <path id="Path_21" data-name="Path 21" d="M262.157,362.712a1.744,1.744,0,0,1,.765.172,2.044,2.044,0,0,1,.624.461,2.144,2.144,0,0,1,.421.688,2.309,2.309,0,0,1,.153.842h-3.655a1.876,1.876,0,0,0,.132.7,1.79,1.79,0,0,0,.361.574,1.708,1.708,0,0,0,.539.384,1.563,1.563,0,0,0,.66.141,1.592,1.592,0,0,0,.675-.149,1.71,1.71,0,0,0,.556-.411l.262.244a2.146,2.146,0,0,1-.674.5,1.95,1.95,0,0,1-1.62.009,2.081,2.081,0,0,1-.651-.462,2.241,2.241,0,0,1,0-3.058,2.087,2.087,0,0,1,.651-.461A1.9,1.9,0,0,1,262.157,362.712Zm0,.363a1.572,1.572,0,0,0-.584.108,1.619,1.619,0,0,0-.493.3,1.9,1.9,0,0,0-.371.457,1.693,1.693,0,0,0-.208.57h3.23a1.841,1.841,0,0,0-.552-1.027,1.548,1.548,0,0,0-.47-.3A1.422,1.422,0,0,0,262.157,363.075Z" transform="translate(-228.952 -360.658)" fill="#fff"/>
        <path id="Path_22" data-name="Path 22" d="M275.143,359.018h.362v6.334h-.362v-.9a2.093,2.093,0,0,1-.719.688,1.977,1.977,0,0,1-1.774.081,2.076,2.076,0,0,1-.651-.462,2.242,2.242,0,0,1,0-3.059,2.079,2.079,0,0,1,.651-.461,1.973,1.973,0,0,1,1.774.081,2.1,2.1,0,0,1,.719.688Zm-1.692,6.017a1.569,1.569,0,0,0,.661-.141,1.7,1.7,0,0,0,.538-.384,1.79,1.79,0,0,0,.363-.574,1.946,1.946,0,0,0,0-1.4,1.8,1.8,0,0,0-.363-.574,1.7,1.7,0,0,0-.538-.384,1.626,1.626,0,0,0-1.321,0,1.7,1.7,0,0,0-.539.384,1.8,1.8,0,0,0-.362.574,1.941,1.941,0,0,0,0,1.4,1.792,1.792,0,0,0,.362.574,1.7,1.7,0,0,0,.539.384A1.562,1.562,0,0,0,273.451,365.035Z" transform="translate(-233.967 -359.018)" fill="#fff"/>
        <path id="Path_23" data-name="Path 23" d="M292.881,361.072a1.9,1.9,0,0,1,.8.172,2.1,2.1,0,0,1,.651.461,2.233,2.233,0,0,1,0,3.059,2.1,2.1,0,0,1-.651.462,1.953,1.953,0,0,1-1.6,0,2.1,2.1,0,0,1-.652-.462,2.209,2.209,0,0,1-.6-1.529v-4.217h.363v3a2.07,2.07,0,0,1,.724-.688A1.92,1.92,0,0,1,292.881,361.072Zm0,3.963a1.564,1.564,0,0,0,.66-.141,1.7,1.7,0,0,0,.539-.384,1.793,1.793,0,0,0,.361-.574,1.933,1.933,0,0,0,0-1.4,1.8,1.8,0,0,0-.361-.574,1.7,1.7,0,0,0-.539-.384,1.626,1.626,0,0,0-1.321,0,1.7,1.7,0,0,0-.538.384,1.789,1.789,0,0,0-.362.574,1.949,1.949,0,0,0,0,1.4,1.781,1.781,0,0,0,.362.574,1.7,1.7,0,0,0,.538.384A1.569,1.569,0,0,0,292.881,365.035Z" transform="translate(-242.593 -359.018)" fill="#fff"/>
        <path id="Path_24" data-name="Path 24" d="M305.306,363.2h.389l-2.551,6.2h-.389l.9-2.19h-.208L301.8,363.2h.389l1.556,3.791Z" transform="translate(-247.463 -360.875)" fill="#fff"/>
        <path id="Path_25" data-name="Path 25" d="M321.07,366.893a2,2,0,0,1-.465-.055,2.039,2.039,0,0,1-.435-.153,1.458,1.458,0,0,1-.366-.254,1.086,1.086,0,0,1-.254-.362l.489-.226a.8.8,0,0,0,.4.366,1.421,1.421,0,0,0,.633.14,1.456,1.456,0,0,0,.417-.058,1.284,1.284,0,0,0,.344-.154.822.822,0,0,0,.231-.221.475.475,0,0,0,.086-.271.585.585,0,0,0-.321-.507,5.452,5.452,0,0,0-.846-.407l-.466-.2a2.273,2.273,0,0,1-.412-.227.977.977,0,0,1-.488-.823.87.87,0,0,1,.113-.429,1.067,1.067,0,0,1,.312-.349,1.63,1.63,0,0,1,.466-.231,1.831,1.831,0,0,1,.565-.086,2.137,2.137,0,0,1,.407.041,1.512,1.512,0,0,1,.389.131,1.561,1.561,0,0,1,.33.222,1.058,1.058,0,0,1,.24.3l-.48.245a.644.644,0,0,0-.339-.29,1.35,1.35,0,0,0-.548-.108,1.189,1.189,0,0,0-.647.167.416.416,0,0,0,.014.782,5.4,5.4,0,0,0,.751.344q.253.1.507.213a2.505,2.505,0,0,1,.461.267,1.125,1.125,0,0,1,.534.941.991.991,0,0,1-.127.489,1.315,1.315,0,0,1-.349.4,1.665,1.665,0,0,1-.515.267A2.032,2.032,0,0,1,321.07,366.893Z" transform="translate(-255.346 -360.514)" fill="#fff"/>
        <path id="Path_26" data-name="Path 26" d="M331.409,366.893a1.985,1.985,0,0,1-.832-.177,2.175,2.175,0,0,1-.683-.484,2.251,2.251,0,0,1-.461-.719,2.313,2.313,0,0,1,.461-2.465,2.184,2.184,0,0,1,.683-.484,1.987,1.987,0,0,1,.832-.177,2.05,2.05,0,0,1,.864.185,2.127,2.127,0,0,1,.7.521l-.408.361a1.667,1.667,0,0,0-.529-.389,1.477,1.477,0,0,0-.629-.136,1.449,1.449,0,0,0-.624.136,1.651,1.651,0,0,0-.507.366,1.724,1.724,0,0,0-.344.543,1.807,1.807,0,0,0,0,1.33,1.73,1.73,0,0,0,.344.543,1.663,1.663,0,0,0,.507.366,1.457,1.457,0,0,0,.624.135,1.486,1.486,0,0,0,.629-.135,1.612,1.612,0,0,0,.529-.4l.408.362a2.184,2.184,0,0,1-.7.524A2,2,0,0,1,331.409,366.893Z" transform="translate(-259.66 -360.514)" fill="#fff"/>
        <path id="Path_27" data-name="Path 27" d="M341.988,362.387a1.991,1.991,0,0,1,.832.177,2.192,2.192,0,0,1,.683.484,2.323,2.323,0,0,1,0,3.185,2.183,2.183,0,0,1-.683.484,2.049,2.049,0,0,1-1.665,0,2.176,2.176,0,0,1-.683-.484,2.251,2.251,0,0,1-.461-.719,2.313,2.313,0,0,1,.461-2.465,2.185,2.185,0,0,1,.683-.484A1.988,1.988,0,0,1,341.988,362.387Zm0,3.963a1.459,1.459,0,0,0,.624-.135,1.673,1.673,0,0,0,.507-.366,1.782,1.782,0,0,0,0-2.416,1.661,1.661,0,0,0-.507-.366,1.506,1.506,0,0,0-1.249,0,1.653,1.653,0,0,0-.507.366,1.782,1.782,0,0,0,0,2.416,1.665,1.665,0,0,0,.507.366A1.458,1.458,0,0,0,341.988,366.349Z" transform="translate(-264.357 -360.514)" fill="#fff"/>
        <path id="Path_28" data-name="Path 28" d="M353.913,362.387a1.726,1.726,0,0,1,.95.271l-.289.453a1.282,1.282,0,0,0-.661-.181,1.205,1.205,0,0,0-.456.086,1.25,1.25,0,0,0-.376.235,1.1,1.1,0,0,0-.253.344.982.982,0,0,0-.091.421v2.832h-.543v-4.189h.543v.172a1.813,1.813,0,0,1,.534-.326A1.751,1.751,0,0,1,353.913,362.387Z" transform="translate(-269.84 -360.514)" fill="#fff"/>
        <path id="Path_29" data-name="Path 29" d="M361.987,366.893a1.986,1.986,0,0,1-.833-.177,2.176,2.176,0,0,1-.683-.484,2.251,2.251,0,0,1-.461-.719,2.313,2.313,0,0,1,.461-2.465,2.185,2.185,0,0,1,.683-.484,2.049,2.049,0,0,1,1.665,0,2.189,2.189,0,0,1,.683.484,2.282,2.282,0,0,1,.629,1.592h-3.746a1.767,1.767,0,0,0,.47,1.208,1.665,1.665,0,0,0,.507.366,1.458,1.458,0,0,0,.625.135,1.484,1.484,0,0,0,.628-.135,1.621,1.621,0,0,0,.53-.4l.407.362a2.177,2.177,0,0,1-.7.524A2,2,0,0,1,361.987,366.893Zm0-3.962a1.481,1.481,0,0,0-.946.325,1.7,1.7,0,0,0-.575.841h3.04a1.816,1.816,0,0,0-.226-.465,1.669,1.669,0,0,0-.344-.371,1.52,1.52,0,0,0-.95-.33Z" transform="translate(-273.237 -360.514)" fill="#fff"/>
        <path id="Path_30" data-name="Path 30" d="M372.574,365.352h-.543v-6.334h.543v2.326a1.772,1.772,0,0,1,1.222-.453,1.8,1.8,0,0,1,1.24.461,1.678,1.678,0,0,1,.389.534,1.512,1.512,0,0,1,.136.633v2.832h-.543V362.52a.947.947,0,0,0-.095-.421,1.123,1.123,0,0,0-.263-.344,1.267,1.267,0,0,0-.389-.235,1.358,1.358,0,0,0-.95,0,1.267,1.267,0,0,0-.389.235,1.123,1.123,0,0,0-.262.344.945.945,0,0,0-.1.421Z" transform="translate(-278.648 -359.018)" fill="#fff"/>
        <path id="Path_31" data-name="Path 31" d="M383.965,362.875v2.606a.938.938,0,0,0,.1.421,1.116,1.116,0,0,0,.262.344,1.266,1.266,0,0,0,.389.235,1.3,1.3,0,0,0,.475.086,1.232,1.232,0,0,0,.869-.325,1,1,0,0,0,.352-.76v-2.606h.543v2.606a1.483,1.483,0,0,1-.136.629,1.7,1.7,0,0,1-.389.529,1.869,1.869,0,0,1-2.479,0,1.694,1.694,0,0,1-.389-.529,1.481,1.481,0,0,1-.136-.629v-2.606Z" transform="translate(-283.706 -360.73)" fill="#fff"/>
        <path id="Path_32" data-name="Path 32" d="M396.958,365.4a1.99,1.99,0,0,1-.832-.177,2.175,2.175,0,0,1-.683-.484,2.264,2.264,0,0,1-.462-.719,2.291,2.291,0,0,1-.167-.873v-4.126h.543v2.624a2.149,2.149,0,0,1,.706-.548,2.01,2.01,0,0,1,.9-.2,1.99,1.99,0,0,1,.833.177,2.2,2.2,0,0,1,.683.484,2.323,2.323,0,0,1,0,3.185,2.186,2.186,0,0,1-.683.484A1.991,1.991,0,0,1,396.958,365.4Zm0-3.963a1.448,1.448,0,0,0-.624.136,1.65,1.65,0,0,0-.507.366,1.781,1.781,0,0,0,0,2.416,1.66,1.66,0,0,0,.507.366,1.51,1.51,0,0,0,1.248,0,1.645,1.645,0,0,0,.507-.366,1.777,1.777,0,0,0,0-2.416,1.635,1.635,0,0,0-.507-.366A1.447,1.447,0,0,0,396.958,361.434Z" transform="translate(-288.764 -359.018)" fill="#fff"/>
      </g>
    </g>
    <path id="Path_33" data-name="Path 33" d="M493.629,354.208l-5.676-.624,3.156-4.758Z" transform="translate(-332.421 -312.638)" fill="#fff"/>
  </g>
</svg>
